<svg display='none' xmlns="http://www.w3.org/2000/svg">
        <symbol id='facebook' viewBox='0 0 32 33'>
            <g>
                <path fill-rule="evenodd" clip-rule="evenodd" d="M16 0.39209C7.16344 0.39209 0 7.55553 0 16.3921C0 25.2286 7.16344 32.3921 16 32.3921C24.8366 32.3921 32 25.2286 32 16.3921C32 7.55553 24.8366 0.39209 16 0.39209ZM17.6676 17.0949V25.7997H14.066V17.0952H12.2666V14.0955H14.066V12.2945C14.066 9.84729 15.082 8.39209 17.9687 8.39209H20.372V11.3922H18.8698C17.7461 11.3922 17.6717 11.8114 17.6717 12.5938L17.6676 14.0952H20.389L20.0706 17.0949H17.6676Z"/>
            </g>
        </symbol>
        <symbol id='twitter' viewBox='0 0 32 33'>
            <g>
                <path fill-rule="evenodd" clip-rule="evenodd" d="M16 0.39209C7.16344 0.39209 0 7.55553 0 16.3921C0 25.2286 7.16344 32.3921 16 32.3921C24.8366 32.3921 32 25.2286 32 16.3921C32 7.55553 24.8366 0.39209 16 0.39209ZM15.5544 13.9503L15.5208 13.3967C15.4201 11.9618 16.3042 10.6511 17.7032 10.1427C18.218 9.9619 19.091 9.9393 19.6617 10.0975C19.8856 10.1653 20.3108 10.3912 20.613 10.5946L21.1614 10.9675L21.7658 10.7754C22.1015 10.6737 22.5492 10.5042 22.7506 10.3912C22.9409 10.2896 23.1088 10.2331 23.1088 10.267C23.1088 10.459 22.6947 11.1144 22.3477 11.4759C21.8777 11.9844 22.012 12.0296 22.9633 11.6906C23.534 11.4985 23.5452 11.4985 23.4333 11.7132C23.3662 11.8262 23.0192 12.2216 22.6499 12.5832C22.0232 13.2046 21.9896 13.2724 21.9896 13.7922C21.9896 14.5944 21.6091 16.2666 21.2286 17.1818C20.5235 18.8992 19.0126 20.6731 17.5017 21.5657C15.3753 22.8198 12.5438 23.1362 10.16 22.4018C9.36539 22.1532 8.00001 21.5205 8.00001 21.4075C8.00001 21.3736 8.4141 21.3284 8.91773 21.3171C9.96974 21.2945 11.0218 21.0007 11.9171 20.481L12.5214 20.1194L11.8276 19.8822C10.8427 19.5432 9.95855 18.7636 9.73472 18.0292C9.66757 17.7919 9.68995 17.7806 10.3167 17.7806L10.9658 17.7693L10.4174 17.5094C9.76829 17.1818 9.17514 16.6281 8.88415 16.0632C8.67151 15.6564 8.40291 14.6283 8.48125 14.5492C8.50364 14.5153 8.73866 14.5831 9.00726 14.6735C9.77949 14.9559 9.88021 14.8881 9.43254 14.4136C8.59317 13.5549 8.33576 12.2781 8.73866 11.0692L8.92892 10.5268L9.66757 11.2612C11.1784 12.7414 12.9579 13.6227 14.9948 13.8825L15.5544 13.9503Z"/>
            </g>
        </symbol>
        <symbol id='linkedin' viewBox='0 0 50 50'>
            <g>
                <path d="M25,2C12.318,2,2,12.317,2,25s10.318,23,23,23s23-10.317,23-23S37.682,2,25,2z M18,35h-4V20h4V35z M16,17c-1.105,0-2-0.895-2-2c0-1.105,0.895-2,2-2s2,0.895,2,2C18,16.105,17.105,17,16,17z M37,35h-4v-5v-2.5c0-1.925-1.575-3.5-3.5-3.5S26,25.575,26,27.5V35h-4V20h4v1.816C27.168,20.694,28.752,20,30.5,20c3.59,0,6.5,2.91,6.5,6.5V35z"/>
            </g>
        </symbol>
        <symbol id='instagram' viewBox='0 0 48 48'>
            <g>
                <path fill-rule="evenodd" clip-rule="evenodd" d="M0 24C0 10.7452 10.7452 0 24 0C37.2548 0 48 10.7452 48 24C48 37.2548 37.2548 48 24 48C10.7452 48 0 37.2548 0 24ZM24.0012 11.2C20.5249 11.2 20.0886 11.2152 18.7233 11.2773C17.3606 11.3397 16.4305 11.5555 15.6166 11.872C14.7747 12.1989 14.0606 12.6363 13.3491 13.348C12.6371 14.0595 12.1997 14.7736 11.8717 15.6152C11.5544 16.4294 11.3384 17.3598 11.2771 18.7219C11.216 20.0873 11.2 20.5238 11.2 24.0001C11.2 27.4764 11.2155 27.9114 11.2773 29.2767C11.34 30.6394 11.5557 31.5695 11.872 32.3834C12.1992 33.2253 12.6365 33.9394 13.3483 34.6509C14.0595 35.3629 14.7736 35.8013 15.615 36.1283C16.4294 36.4448 17.3598 36.6605 18.7222 36.7229C20.0876 36.7851 20.5236 36.8003 23.9996 36.8003C27.4762 36.8003 27.9111 36.7851 29.2765 36.7229C30.6391 36.6605 31.5703 36.4448 32.3848 36.1283C33.2264 35.8013 33.9394 35.3629 34.6506 34.6509C35.3626 33.9394 35.8 33.2253 36.128 32.3837C36.4427 31.5695 36.6587 30.6391 36.7227 29.277C36.784 27.9116 36.8 27.4764 36.8 24.0001C36.8 20.5238 36.784 20.0876 36.7227 18.7222C36.6587 17.3595 36.4427 16.4294 36.128 15.6155C35.8 14.7736 35.3626 14.0595 34.6506 13.348C33.9386 12.636 33.2266 12.1987 32.384 11.872C31.5679 11.5555 30.6373 11.3397 29.2746 11.2773C27.9092 11.2152 27.4746 11.2 23.9972 11.2H24.0012Z"/>
                <path fill-rule="evenodd" clip-rule="evenodd" d="M22.8529 13.5067C23.1937 13.5062 23.574 13.5067 24.0012 13.5067C27.4188 13.5067 27.8239 13.519 29.1735 13.5803C30.4215 13.6374 31.0989 13.8459 31.5501 14.0211C32.1474 14.2531 32.5733 14.5304 33.021 14.9784C33.469 15.4264 33.7464 15.8531 33.9789 16.4505C34.1541 16.9011 34.3629 17.5785 34.4197 18.8265C34.481 20.1758 34.4944 20.5812 34.4944 23.9972C34.4944 27.4132 34.481 27.8186 34.4197 29.1679C34.3626 30.4159 34.1541 31.0933 33.9789 31.5439C33.7469 32.1413 33.469 32.5666 33.021 33.0144C32.573 33.4624 32.1477 33.7397 31.5501 33.9717C31.0994 34.1477 30.4215 34.3557 29.1735 34.4128C27.8242 34.4741 27.4188 34.4874 24.0012 34.4874C20.5833 34.4874 20.1782 34.4741 18.8289 34.4128C17.5809 34.3552 16.9035 34.1466 16.4521 33.9714C15.8547 33.7394 15.428 33.4621 14.98 33.0141C14.532 32.5661 14.2547 32.1405 14.0222 31.5429C13.847 31.0922 13.6382 30.4149 13.5814 29.1669C13.52 27.8175 13.5078 27.4122 13.5078 23.994C13.5078 20.5758 13.52 20.1726 13.5814 18.8233C13.6384 17.5753 13.847 16.8979 14.0222 16.4467C14.2542 15.8494 14.532 15.4227 14.98 14.9747C15.428 14.5267 15.8547 14.2494 16.4521 14.0168C16.9033 13.8408 17.5809 13.6328 18.8289 13.5755C20.0097 13.5222 20.4673 13.5062 22.8529 13.5035V13.5067ZM30.8338 15.632C29.9858 15.632 29.2978 16.3193 29.2978 17.1675C29.2978 18.0155 29.9858 18.7035 30.8338 18.7035C31.6818 18.7035 32.3698 18.0155 32.3698 17.1675C32.3698 16.3195 31.6818 15.632 30.8338 15.632ZM24.0012 17.4267C20.371 17.4267 17.4278 20.37 17.4278 24.0001C17.4278 27.6303 20.371 30.5722 24.0012 30.5722C27.6314 30.5722 30.5735 27.6303 30.5735 24.0001C30.5735 20.37 27.6314 17.4267 24.0012 17.4267Z"/>
                <path fill-rule="evenodd" clip-rule="evenodd" d="M24.0012 19.7334C26.3575 19.7334 28.2679 21.6436 28.2679 24.0001C28.2679 26.3564 26.3575 28.2668 24.0012 28.2668C21.6446 28.2668 19.7345 26.3564 19.7345 24.0001C19.7345 21.6436 21.6446 19.7334 24.0012 19.7334Z"/>
            </g>
        </symbol>
        <symbol  id='youtube' viewBox="0 0 32 33">
            <g>
                <path fill-rule="evenodd" clip-rule="evenodd" d="M16 0.39209C7.16344 0.39209 0 7.55553 0 16.3921C0 25.2286 7.16344 32.3921 16 32.3921C24.8366 32.3921 32 25.2286 32 16.3921C32 7.55553 24.8366 0.39209 16 0.39209ZM22.6679 10.8924C23.4022 11.0939 23.9805 11.6877 24.1768 12.4417C24.5335 13.8082 24.5335 16.6595 24.5335 16.6595C24.5335 16.6595 24.5335 19.5107 24.1768 20.8774C23.9805 21.6314 23.4022 22.2251 22.6679 22.4268C21.3371 22.7929 16.0001 22.7929 16.0001 22.7929C16.0001 22.7929 10.6632 22.7929 9.3323 22.4268C8.59795 22.2251 8.01962 21.6314 7.82335 20.8774C7.4668 19.5107 7.4668 16.6595 7.4668 16.6595C7.4668 16.6595 7.4668 13.8082 7.82335 12.4417C8.01962 11.6877 8.59795 11.0939 9.3323 10.8924C10.6632 10.5262 16.0001 10.5262 16.0001 10.5262C16.0001 10.5262 21.3371 10.5262 22.6679 10.8924Z"/>
                <path fill-rule="evenodd" clip-rule="evenodd" d="M14.3999 19.5914V14.2581L18.6666 16.9248L14.3999 19.5914Z"/>
            </g>
        </symbol>
        <symbol id='quote' viewBox="0 0 512 512">
            <g>
                <path fill="#fff" d="M464 32H336c-26.5 0-48 21.5-48 48v128c0 26.5 21.5 48 48 48h80v64c0 35.3-28.7 64-64 64h-8c-13.3 0-24 10.7-24 24v48c0 13.3 10.7 24 24 24h8c88.4 0 160-71.6 160-160V80c0-26.5-21.5-48-48-48zm-288 0H48C21.5 32 0 53.5 0 80v128c0 26.5 21.5 48 48 48h80v64c0 35.3-28.7 64-64 64h-8c-13.3 0-24 10.7-24 24v48c0 13.3 10.7 24 24 24h8c88.4 0 160-71.6 160-160V80c0-26.5-21.5-48-48-48z"/>
            </g>
        </symbol>
</svg>